<svg xmlns="http://www.w3.org/2000/svg" xmlns:xlink="http://www.w3.org/1999/xlink" width="50" zoomAndPan="magnify" viewBox="0 0 37.5 37.499999" height="50" preserveAspectRatio="xMidYMid meet" version="1.0"><defs><clipPath id="b3acadda98"><path d="M 6 14 L 31 14 L 31 34.761719 L 6 34.761719 Z M 6 14 " clip-rule="nonzero"/></clipPath><clipPath id="0410efca88"><path d="M 8 2.195312 L 18 2.195312 L 18 14 L 8 14 Z M 8 2.195312 " clip-rule="nonzero"/></clipPath><clipPath id="4d72f24446"><path d="M 19 2.195312 L 30 2.195312 L 30 14 L 19 14 Z M 19 2.195312 " clip-rule="nonzero"/></clipPath><clipPath id="ddd88b55d8"><path d="M 6 14 L 31 14 L 31 34.761719 L 6 34.761719 Z M 6 14 " clip-rule="nonzero"/></clipPath><clipPath id="b520171f94"><path d="M 8 2.195312 L 18 2.195312 L 18 14 L 8 14 Z M 8 2.195312 " clip-rule="nonzero"/></clipPath><clipPath id="6f56675fba"><path d="M 19 2.195312 L 30 2.195312 L 30 14 L 19 14 Z M 19 2.195312 " clip-rule="nonzero"/></clipPath></defs><g clip-path="url(#b3acadda98)"><path fill="#000000" d="M 26.492188 21.984375 C 25.816406 21.691406 24.898438 20.351562 24.257812 18.730469 C 23.824219 17.640625 22.539062 14.414062 19.058594 14.167969 C 18.988281 14.152344 18.917969 14.144531 18.84375 14.144531 C 18.808594 14.144531 18.777344 14.148438 18.742188 14.148438 C 18.707031 14.148438 18.675781 14.144531 18.636719 14.144531 C 18.5625 14.144531 18.492188 14.152344 18.421875 14.167969 C 14.941406 14.414062 13.65625 17.640625 13.226562 18.730469 C 12.582031 20.351562 11.664062 21.691406 10.988281 21.984375 C 8.097656 23.238281 6.367188 26.277344 6.773438 29.371094 C 7.148438 32.207031 9.210938 34.242188 12.160156 34.683594 C 12.503906 34.734375 12.851562 34.761719 13.199219 34.761719 C 14.148438 34.761719 15.097656 34.570312 15.988281 34.195312 C 16.378906 34.03125 16.730469 33.84375 17.074219 33.660156 C 17.664062 33.339844 18.179688 33.066406 18.742188 33 C 19.304688 33.066406 19.820312 33.339844 20.410156 33.660156 C 20.75 33.84375 21.101562 34.03125 21.492188 34.195312 C 22.386719 34.570312 23.332031 34.761719 24.28125 34.761719 C 24.628906 34.761719 24.976562 34.734375 25.320312 34.683594 C 28.269531 34.242188 30.332031 32.207031 30.707031 29.371094 C 31.113281 26.277344 29.382812 23.238281 26.492188 21.984375 Z M 26.492188 21.984375 " fill-opacity="1" fill-rule="nonzero"/></g><path fill="#000000" d="M 9.722656 16.851562 C 9.320312 14.046875 7.226562 11.933594 4.859375 11.933594 C 4.667969 11.933594 4.476562 11.949219 4.289062 11.976562 C 1.734375 12.34375 0.015625 15.132812 0.457031 18.1875 C 0.863281 20.992188 2.957031 23.105469 5.324219 23.105469 C 5.515625 23.105469 5.707031 23.089844 5.894531 23.0625 C 8.449219 22.695312 10.167969 19.90625 9.722656 16.851562 Z M 9.722656 16.851562 " fill-opacity="1" fill-rule="nonzero"/><g clip-path="url(#0410efca88)"><path fill="#000000" d="M 12.730469 13.398438 C 15.3125 13.398438 17.414062 10.886719 17.414062 7.796875 C 17.414062 4.710938 15.3125 2.195312 12.730469 2.195312 C 10.148438 2.195312 8.050781 4.710938 8.050781 7.796875 C 8.050781 10.886719 10.148438 13.398438 12.730469 13.398438 Z M 12.730469 13.398438 " fill-opacity="1" fill-rule="nonzero"/></g><path fill="#000000" d="M 35.878906 13.882812 C 35.066406 12.710938 33.90625 12.019531 32.617188 11.929688 C 30.035156 11.753906 27.773438 14.132812 27.566406 17.203125 C 27.46875 18.652344 27.832031 20.058594 28.59375 21.15625 C 29.40625 22.328125 30.5625 23.019531 31.855469 23.109375 C 31.945312 23.113281 32.035156 23.117188 32.125 23.117188 C 34.605469 23.117188 36.703125 20.796875 36.90625 17.835938 C 37.003906 16.386719 36.640625 14.980469 35.878906 13.882812 Z M 35.878906 13.882812 " fill-opacity="1" fill-rule="nonzero"/><g clip-path="url(#4d72f24446)"><path fill="#000000" d="M 24.597656 13.398438 C 27.175781 13.398438 29.277344 10.886719 29.277344 7.796875 C 29.277344 4.710938 27.175781 2.195312 24.597656 2.195312 C 22.015625 2.195312 19.914062 4.710938 19.914062 7.796875 C 19.914062 10.886719 22.015625 13.398438 24.597656 13.398438 Z M 24.597656 13.398438 " fill-opacity="1" fill-rule="nonzero"/></g><g clip-path="url(#ddd88b55d8)"><path fill="#000000" d="M 26.492188 21.984375 C 25.816406 21.691406 24.898438 20.351562 24.257812 18.730469 C 23.824219 17.640625 22.539062 14.414062 19.058594 14.167969 C 18.988281 14.152344 18.917969 14.144531 18.84375 14.144531 C 18.808594 14.144531 18.777344 14.148438 18.742188 14.148438 C 18.707031 14.148438 18.675781 14.144531 18.636719 14.144531 C 18.5625 14.144531 18.492188 14.152344 18.421875 14.167969 C 14.941406 14.414062 13.65625 17.640625 13.226562 18.730469 C 12.582031 20.351562 11.664062 21.691406 10.988281 21.984375 C 8.097656 23.238281 6.367188 26.277344 6.773438 29.371094 C 7.148438 32.207031 9.210938 34.242188 12.160156 34.683594 C 12.503906 34.734375 12.851562 34.761719 13.199219 34.761719 C 14.148438 34.761719 15.097656 34.570312 15.988281 34.195312 C 16.378906 34.03125 16.730469 33.84375 17.074219 33.660156 C 17.664062 33.339844 18.179688 33.066406 18.742188 33 C 19.304688 33.066406 19.820312 33.339844 20.410156 33.660156 C 20.75 33.84375 21.101562 34.03125 21.492188 34.195312 C 22.386719 34.570312 23.332031 34.761719 24.28125 34.761719 C 24.628906 34.761719 24.976562 34.734375 25.320312 34.683594 C 28.269531 34.242188 30.332031 32.207031 30.707031 29.371094 C 31.113281 26.277344 29.382812 23.238281 26.492188 21.984375 Z M 26.492188 21.984375 " fill-opacity="1" fill-rule="nonzero"/></g><path fill="#000000" d="M 9.722656 16.851562 C 9.320312 14.046875 7.226562 11.933594 4.859375 11.933594 C 4.667969 11.933594 4.476562 11.949219 4.289062 11.976562 C 1.734375 12.34375 0.015625 15.132812 0.457031 18.1875 C 0.863281 20.992188 2.957031 23.105469 5.324219 23.105469 C 5.515625 23.105469 5.707031 23.089844 5.894531 23.0625 C 8.449219 22.695312 10.167969 19.90625 9.722656 16.851562 Z M 9.722656 16.851562 " fill-opacity="1" fill-rule="nonzero"/><g clip-path="url(#b520171f94)"><path fill="#000000" d="M 12.730469 13.398438 C 15.3125 13.398438 17.414062 10.886719 17.414062 7.796875 C 17.414062 4.710938 15.3125 2.195312 12.730469 2.195312 C 10.148438 2.195312 8.050781 4.710938 8.050781 7.796875 C 8.050781 10.886719 10.148438 13.398438 12.730469 13.398438 Z M 12.730469 13.398438 " fill-opacity="1" fill-rule="nonzero"/></g><path fill="#000000" d="M 35.878906 13.882812 C 35.066406 12.710938 33.90625 12.019531 32.617188 11.929688 C 30.035156 11.753906 27.773438 14.132812 27.566406 17.203125 C 27.46875 18.652344 27.832031 20.058594 28.59375 21.15625 C 29.40625 22.328125 30.5625 23.019531 31.855469 23.109375 C 31.945312 23.113281 32.035156 23.117188 32.125 23.117188 C 34.605469 23.117188 36.703125 20.796875 36.90625 17.835938 C 37.003906 16.386719 36.640625 14.980469 35.878906 13.882812 Z M 35.878906 13.882812 " fill-opacity="1" fill-rule="nonzero"/><g clip-path="url(#6f56675fba)"><path fill="#000000" d="M 24.597656 13.398438 C 27.175781 13.398438 29.277344 10.886719 29.277344 7.796875 C 29.277344 4.710938 27.175781 2.195312 24.597656 2.195312 C 22.015625 2.195312 19.914062 4.710938 19.914062 7.796875 C 19.914062 10.886719 22.015625 13.398438 24.597656 13.398438 Z M 24.597656 13.398438 " fill-opacity="1" fill-rule="nonzero"/></g></svg>